<?xml version="1.0" encoding="UTF-8"?>
<svg xmlns="http://www.w3.org/2000/svg" id="a" width="865.76" height="682.89" viewBox="0 0 865.76 682.89">
  <g>
    <rect x="659.73" y="173.38" width="44.02" height="130.89" fill="#0172cf"></rect>
    <path d="M703.76,304.77h-44.02c-.28,0-.5-.22-.5-.5V173.38c0-.28,.22-.5,.5-.5h44.02c.28,0,.5,.22,.5,.5v130.89c0,.28-.22,.5-.5,.5Zm-43.52-1h43.02V173.88h-43.02v129.89Z" fill="#002346"></path>
  </g>
  <g>
    <rect x="703.76" y="173.38" width="82.24" height="130.89" fill="#0172cf"></rect>
    <path d="M785.99,304.77h-82.24c-.28,0-.5-.22-.5-.5V173.38c0-.28,.22-.5,.5-.5h82.24c.28,0,.5,.22,.5,.5v130.89c0,.28-.22,.5-.5,.5Zm-81.74-1h81.24V173.88h-81.24v129.89Z" fill="#002346"></path>
  </g>
  <g>
    <rect x="724.6" y="173.38" width="16.22" height="38.23" fill="#fff"></rect>
    <path d="M741.32,212.11h-17.22v-39.23h17.22v39.23Zm-16.22-1h15.22v-37.23h-15.22v37.23Z" fill="#002346"></path>
  </g>
  <rect x="563.58" y="304.28" width="222.41" height="10.43" fill="#0172cf"></rect>
  <g>
    <rect x="563.58" y="304.28" width="222.41" height="10.43" fill="#fff"></rect>
    <path d="M786.49,315.21h-223.41v-11.43h223.41v11.43Zm-222.41-1h221.41v-9.43h-221.41v9.43Z" fill="#002346"></path>
  </g>
  <g>
    <rect x="571.7" y="230.14" width="37.07" height="74.14" fill="#e6e7e8"></rect>
    <path d="M609.27,304.78h-38.07v-75.14h38.07v75.14Zm-37.07-1h36.07v-73.14h-36.07v73.14Z" fill="#002346"></path>
  </g>
  <g>
    <rect x="608.77" y="230.14" width="66.03" height="74.14" fill="#e6e7e8"></rect>
    <path d="M675.3,304.78h-67.03v-75.14h67.03v75.14Zm-66.03-1h65.03v-73.14h-65.03v73.14Z" fill="#002346"></path>
  </g>
  <g>
    <rect x="624.98" y="230.14" width="12.74" height="22.01" fill="#fff"></rect>
    <path d="M638.22,252.65h-13.74v-23.01h13.74v23.01Zm-12.74-1h11.74v-21.01h-11.74v21.01Z" fill="#002346"></path>
  </g>
  <path d="M594.44,622.82h-219.66c-1-15.19,4.3-61.93,6.21-78.23,.43-3.58,.68-5.69,.68-5.69l.55-33.79h13l150.77,26.78,11.14,7.36,32.5,21.47,4.81,62.1Z" fill="#002346"></path>
  <g opacity=".2">
    <path d="M523.17,622.82h19.25s11.64-34,50.58-18.72l-3.33-43.38-43.64-28.83-30.85,46.13,7.99,44.8Z"></path>
  </g>
  <g opacity=".2">
    <path d="M374.77,622.82h69.42s40.36-21,56.13-39.46l-1-25.32s-65.76,4.46-118.3-13.45c-.04,0-7.41,58.54-6.25,78.23Z"></path>
  </g>
  <g opacity=".2">
    <path d="M557.16,539.25c-14.07,7.84-26.13,20-26.1,38.74,0,0-2.2,25.31-7.9,44.84h-22.78c.12-20.21,.14-58-1.1-64.79,0,0-76.06,3.21-118.3-13.45,.42-3.58,.68-5.69,.68-5.69l.54-33.79h13.06l150.77,26.78,11.13,7.36Z"></path>
  </g>
  <g>
    <polygon points="569.39 396.61 576.76 414.43 632.52 397.52 620.59 376.01 614.64 376.01 571.7 394.63 569.39 396.61" fill="#f2b3c1"></polygon>
    <path d="M576.49,414.99l-7.66-18.52,2.68-2.27,43.03-18.66h6.33l12.33,22.25-56.71,17.2Zm-6.55-18.25l7.08,17.12,54.81-16.62-11.51-20.77h-5.59l-42.79,18.55-2,1.72Z" fill="#002346"></path>
  </g>
  <g>
    <path d="M618.03,378.41c-33.6,23.17-66,17.38-66,17.38l9.27,19.69-16.25,123.94c-6.84,2.72-13.92,4.8-21.14,6.22-37.09,7.53-79.09,1.1-93.85-1.64-3.54-.64-7.14-.89-10.74-.73-29.13,1.17-26-15.43-26-15.43l-1.87-12.11c-.07-.41-.46-.69-.88-.62-.27,.05-.49,.23-.58,.48l-10.58,29.62c-2.31-2.31-2.31-13.9-2.31-13.9-.56-15.43-1.62-34-2.61-49.23-1.08-16.79-2-29.53-2-29.53l11-75.88c-9.27-5.79-22.59-6.37-22.59-6.37-26.05-1.53-38.93,5.56-44.65,10.53-1.47,1.28-3.69,1.12-4.97-.35-.42-.49-.71-1.08-.81-1.72-.73-5.1-.91-10.27-.54-15.41-1.19-16.22,23.18-104.25,23.18-104.25,1.16-19.69,62.22-36.08,62.22-36.08l31.29,9.68,93.58,6.32c13.38,3.11,28.57,11.24,28.57,11.24,20,8.55,29.13,32,29.13,32,34,57.91,42.44,82.24,42.44,82.24,5.77,9.28-2.31,13.91-2.31,13.91Z" fill="#0172cf"></path>
    <path d="M485.04,549.69c-23.57,0-44.64-3.26-55.07-5.2-3.5-.63-7.07-.88-10.63-.72-11.52,.47-19.47-1.75-23.63-6.57-3.55-4.11-3.01-8.65-2.9-9.36l-1.86-12.03c-.01-.06-.05-.12-.1-.16-.03-.02-.1-.06-.19-.04-.09,.02-.17,.08-.2,.16l-10.58,29.61c-.06,.16-.19,.28-.36,.32-.17,.04-.34-.01-.46-.13-2.39-2.39-2.46-13.05-2.46-14.25-.65-17.86-1.91-38.49-2.61-49.2-1.07-16.6-1.99-29.4-2-29.53,0-.04,0-.07,0-.11l10.95-75.56c-9.04-5.5-21.94-6.12-22.07-6.12-26.34-1.55-39.06,5.86-44.3,10.41-1.67,1.46-4.22,1.28-5.67-.4-.48-.56-.81-1.24-.93-1.97-.73-5.14-.91-10.36-.55-15.53-1.18-15.98,22-100.03,23.18-104.3,1.27-19.8,60.08-35.81,62.59-36.48,.09-.03,.19-.02,.28,0l31.23,9.66,93.52,6.32c13.37,3.1,28.62,11.22,28.77,11.3,19.92,8.51,29.27,32.02,29.36,32.26,32.84,55.93,41.95,80.88,42.43,82.2,1.91,3.1,2.54,6.03,1.86,8.73-.94,3.74-4.05,5.64-4.36,5.82-30.22,20.83-59.84,18.29-65.42,17.58l8.87,18.85c.04,.09,.06,.18,.04,.28l-16.25,123.94c-.02,.18-.14,.33-.31,.4-6.85,2.72-13.99,4.82-21.23,6.25-12.86,2.61-26.28,3.56-38.97,3.56Zm-63.61-6.96c2.92,0,5.85,.26,8.72,.78,15.98,2.97,57.1,9.07,93.66,1.64,7.08-1.39,14.07-3.44,20.78-6.09l16.19-123.5-9.21-19.56c-.08-.17-.06-.37,.06-.52s.3-.22,.48-.19c.32,.06,32.6,5.48,65.63-17.3,.01,0,.02-.01,.03-.02,.03-.02,3.05-1.79,3.91-5.22,.61-2.43,.01-5.12-1.77-7.99-.02-.03-.04-.06-.05-.1-.08-.24-8.83-24.97-42.4-82.15-.13-.3-9.33-23.43-28.9-31.79-.19-.1-15.33-8.15-28.49-11.21l-93.5-6.31s-.08,0-.11-.02l-31.15-9.64c-3.25,.89-60.61,16.93-61.71,35.59,0,.04,0,.07-.02,.1-.24,.88-24.33,88.13-23.16,104.08-.36,5.17-.18,10.32,.54,15.38,.09,.54,.33,1.05,.7,1.46,1.09,1.26,3,1.39,4.26,.3,5.35-4.65,18.32-12.23,45.01-10.65,.13,0,13.55,.65,22.83,6.45,.17,.1,.26,.3,.23,.5l-10.99,75.83c.07,.93,.96,13.43,2,29.48,.7,10.71,1.96,31.35,2.61,49.24,0,2.86,.32,10.11,1.67,12.83l10.25-28.7c.16-.42,.53-.73,.97-.81,.33-.06,.67,.02,.94,.21,.27,.19,.46,.48,.51,.82l1.87,12.12c0,.06,0,.11,0,.17,0,.05-.81,4.62,2.67,8.63,3.96,4.57,11.64,6.66,22.82,6.21,.71-.03,1.42-.05,2.12-.05Z" fill="#002346"></path>
  </g>
  <path d="M530.65,116.25c.13,7.77-3.15,24.66-5.27,32.14l-.03-25.58c1.99-2,3.76-4.2,5.3-6.56Z" fill="#002346"></path>
  <g>
    <path d="M492.92,242.88c-1.13,17.14-25.81,35.33-26.61,35.9h0c1.61-10.75-2.27-17.26-6.88-21.15h0c-3.37-2.75-7.37-4.63-11.64-5.48-26.64-5.79-31.28-34.75-31.28-34.75,3.12-2.1,5.83-4.76,8-7.83h0c.23-.32,.45-.64,.66-1,.04-.05,.08-.11,.12-.17,.19-.29,.39-.59,.56-.89,.1-.14,.19-.28,.27-.43,.17-.27,.33-.54,.47-.83,7.84-13.72,7.46-31.92,7.13-37.46,0-.07,0-.14,0-.21v-.71c0-.41-.05-.63-.05-.63,6,30.37,24.34,50.48,46,50.48,3.2,0,6.38-.48,9.43-1.43l-.09,4.55c-.07,1.17,.29,2.32,1,3.25,.99,1.28,1.74,2.74,2.21,4.29,.59,1.93,.95,3.92,1.07,5.94h0c.17,2.86,.04,5.73-.37,8.56Z" fill="#f2b3c1"></path>
    <path d="M465.7,279.78l.16-1.07c1.33-8.87-.93-15.84-6.72-20.73-3.3-2.69-7.25-4.55-11.43-5.38-26.65-5.79-31.6-34.84-31.65-35.13l-.05-.29,.24-.17c3.09-2.08,5.74-4.67,7.88-7.71,.22-.31,.44-.62,.64-.97,.07-.1,.1-.14,.13-.18l.07-.11c.17-.25,.34-.51,.48-.77,.11-.16,.19-.29,.27-.42,.18-.28,.33-.54,.46-.81,7.82-13.68,7.4-31.96,7.08-37.23,0-.09,0-.18,0-.27v-.68c0-.29-.03-.47-.04-.52,0,0,0-.01,0-.02l.9-.19s0,.02,0,.04c5.93,29.96,24.23,50.08,45.54,50.08,3.16,0,6.28-.48,9.29-1.41l.61-.19-.1,5.19c-.06,1.08,.26,2.12,.9,2.96,1.03,1.33,1.8,2.83,2.29,4.44,.6,1.96,.97,4,1.09,6.05,.17,2.88,.04,5.78-.37,8.64-1.17,17.52-26.55,36.04-26.8,36.23l-.88,.63Zm-48.68-62.17c.58,3.01,6.26,28.74,30.87,34.09,4.32,.86,8.42,2.79,11.83,5.57,5.81,4.9,8.23,11.79,7.19,20.48,4.46-3.42,24.54-19.63,25.55-34.9v-.04c.41-2.8,.53-5.65,.37-8.47-.12-1.98-.47-3.94-1.05-5.83-.46-1.5-1.18-2.9-2.13-4.14-.78-1.02-1.17-2.28-1.09-3.56l.08-3.9c-2.91,.84-5.92,1.27-8.96,1.27-20.6,0-38.41-18.28-45.37-46,.12,7.62-.63,22.6-7.31,34.29-.13,.28-.3,.57-.48,.85-.07,.13-.17,.29-.28,.45-.13,.23-.31,.51-.49,.78l-.06,.09c-.04,.07-.09,.14-.15,.21-.18,.32-.41,.65-.64,.98-2.15,3.05-4.79,5.66-7.87,7.77Z" fill="#002346"></path>
  </g>
  <g>
    <path d="M509.11,282.27c-6.25-5.47-14.31-8.41-22.61-8.25-6.97,.12-13.83,1.73-20.13,4.72,.01-.03,.03-.05,.06-.06h0l.25-.19,.91-.7,.29-.23c.53-.42,1.19-.94,1.94-1.56l.77-.64,1-.81,.49-.43c.4-.34,.81-.71,1.24-1.09s.59-.53,.9-.81l.22-.2c.56-.52,1.14-1.06,1.73-1.63l.6-.58c.5-.49,1-1,1.51-1.52,.21-.19,.41-.4,.6-.61s.41-.41,.61-.63c.4-.41,.81-.85,1.2-1.29,.2-.21,.39-.44,.59-.66,1.6-1.79,3.16-3.69,4.6-5.66,.17-.25,.36-.49,.53-.75s.35-.5,.52-.75,.34-.5,.5-.76c1.65-2.45,3.02-5.09,4.07-7.85,.09-.27,.18-.53,.28-.8,.62-1.82,1.01-3.71,1.15-5.63,.4-2.83,.51-5.7,.33-8.55h0c-.12-2.02-.48-4.01-1.07-5.94-.47-1.55-1.22-3.01-2.21-4.29-.71-.93-1.07-2.08-1-3.25l.09-2.55,23.67,12.14c22.05,13-3.63,51.81-3.63,51.81Z" fill="#ffb91d"></path>
    <path d="M509.22,283.02l-.43-.38c-6.17-5.4-14.07-8.27-22.27-8.13-6.95,.12-13.65,1.69-19.93,4.67l-1.19,.57,.6-1.4,.39-.26,1.36-1.05c.5-.39,1.1-.87,1.77-1.42l2.25-1.87c.31-.26,.62-.54,.93-.82l.3-.27c.31-.28,.48-.43,.67-.6l.45-.41c.55-.51,1.13-1.05,1.72-1.62l.6-.58c.48-.48,.97-.97,1.47-1.48,.25-.23,.44-.43,.62-.63,.1-.11,.21-.22,.32-.33,.1-.1,.2-.2,.29-.3,.41-.42,.81-.85,1.2-1.29,.13-.13,.23-.26,.35-.38l.25-.28c1.67-1.87,3.21-3.76,4.57-5.62,.07-.1,.15-.21,.23-.33,.1-.13,.19-.26,.28-.4,.1-.16,.21-.31,.31-.46l.21-.3c.17-.25,.33-.49,.49-.74,1.64-2.44,2.99-5.04,4.03-7.77,.08-.26,.18-.52,.28-.8,.6-1.77,.98-3.62,1.12-5.49,.4-2.82,.51-5.67,.33-8.48-.12-1.98-.47-3.93-1.05-5.83-.46-1.5-1.17-2.89-2.13-4.13-.79-1.02-1.18-2.3-1.1-3.59l.12-3.32,24.37,12.5c4.54,2.68,7.43,6.61,8.6,11.7,3.83,16.59-11.39,39.85-12.04,40.83l-.32,.48Zm-22.05-9.51c8.01,0,15.72,2.82,21.84,8,2.17-3.45,15.03-24.69,11.6-39.58-1.11-4.81-3.84-8.53-8.11-11.05l-22.94-11.77-.06,1.76c-.06,1.06,.26,2.09,.9,2.93,1.03,1.34,1.8,2.83,2.29,4.45,.6,1.97,.97,4,1.09,6.06,.18,2.88,.07,5.79-.33,8.65-.14,1.93-.54,3.86-1.17,5.72-.1,.28-.19,.53-.28,.8-1.07,2.81-2.46,5.49-4.13,7.97-.15,.25-.33,.5-.5,.76l-.22,.32c-.1,.14-.2,.28-.29,.43-.1,.15-.21,.3-.31,.44-.08,.11-.15,.21-.22,.32-1.38,1.89-2.94,3.81-4.64,5.71l-.24,.27c-.12,.14-.24,.27-.36,.4-.38,.43-.8,.88-1.2,1.29-.09,.1-.2,.21-.31,.32-.1,.1-.2,.19-.28,.29-.2,.22-.41,.44-.63,.64-.51,.52-1,1.02-1.5,1.51l-.6,.58c-.59,.57-1.18,1.12-1.74,1.64l-.45,.41c-.19,.17-.36,.33-.68,.61l-.3,.27c-.32,.29-.64,.57-.95,.83l-.48,.42-1.78,1.46c-.17,.14-.33,.27-.49,.4,5.38-2.07,11.03-3.17,16.84-3.27,.22,0,.45,0,.67,0Z" fill="#002346"></path>
  </g>
  <g>
    <path d="M445.6,251.62s-14.07,2.85-23.34,8.64c0,0-15.55,11.05-22.25-4.32,0,0-13.82-27.49-1-37.65l17.46-9.5c-.33,2.86-.33,5.75,0,8.61,0,0,4.97,27.89,29.13,34.22Z" fill="#ffb91d"></path>
    <path d="M411.07,264.61c-1.08,0-2.18-.13-3.27-.43-3.58-.99-6.35-3.7-8.24-8.04-.56-1.11-13.84-27.95-.85-38.24l18.38-10.01-.11,.96c-.33,2.82-.33,5.68,0,8.49,.04,.25,5.2,27.62,28.76,33.79l2.08,.55-2.11,.43c-.14,.03-14.09,2.9-23.17,8.57-.24,.17-5.6,3.92-11.46,3.92Zm4.81-54.92l-16.63,9.05c-12.28,9.74,1.07,36.71,1.21,36.99,1.78,4.07,4.33,6.59,7.6,7.5,6.52,1.82,13.84-3.31,13.91-3.36,7.24-4.52,17.45-7.29,21.63-8.29-22.59-7.25-27.58-33.8-27.63-34.07-.3-2.61-.34-5.22-.1-7.8Z" fill="#002346"></path>
  </g>
  <g>
    <path d="M416.47,208.79s5.17-3.25,10.11-2.54c-2.42,4.48-5.89,8.3-10.11,11.15,0,0-1.16-5.63,0-8.61Z" fill="#ffb91d"></path>
    <path d="M416.14,218.23l-.15-.73c-.05-.24-1.18-5.81,.02-8.89l.06-.15,.14-.09c.22-.14,5.38-3.34,10.45-2.61l.71,.1-.34,.63c-2.45,4.53-6,8.44-10.27,11.33l-.62,.42Zm.75-9.1c-.77,2.2-.31,5.85-.05,7.42,3.65-2.6,6.72-5.99,8.95-9.88-4.03-.26-8.09,1.99-8.9,2.46Z" fill="#002346"></path>
  </g>
  <g>
    <path d="M624.63,350.02c-.94,4.72-2.49,9.3-4.61,13.63-2.6,5.06-5.3,7.29-7,8.27-.62,.35-1.2,.77-1.72,1.25-.74,.68-1.39,1.46-1.92,2.31l-3.29,5.29-17-8.11c-3.48-3.48-8.11-1.16-8.11-1.16l-7.44-4-22,36.71c3,9.53-6.06,7.75-6.06,7.75l-16.64-8,29-48.65,3.48-2.39h2.31c-2.69-1.72-4.68-4.34-5.63-7.39-.86-2.4-.34-5.09,1.35-7,4.61-5.06,14.73-5.06,25.68-3.06h0c9.38,1.87,18.6,4.51,27.55,7.89h0c4.9,1.78,8.77,3.37,10.82,4.24,.95,.39,1.47,1.42,1.23,2.42Z" fill="#ffb91d"></path>
    <path d="M547.06,412.59c-.93,0-1.62-.13-1.68-.14l-.12-.04-17.13-8.24,29.43-49.28,3.61-2.48h.92c-2.14-1.74-3.74-4.09-4.57-6.74-.92-2.56-.36-5.43,1.45-7.48,4.15-4.55,12.94-5.63,26.14-3.22,9.39,1.88,18.69,4.54,27.64,7.91,5.02,1.82,8.95,3.44,10.84,4.25,1.18,.49,1.82,1.74,1.52,2.99-.95,4.76-2.52,9.38-4.65,13.74-2.61,5.09-5.36,7.42-7.2,8.48-.59,.33-1.14,.73-1.63,1.18-.71,.65-1.33,1.39-1.84,2.21l-3.53,5.67-17.54-8.4c-3.19-3.19-7.49-1.09-7.53-1.07l-.23,.12-7.25-3.9-21.64,36.11c.91,3.01,.72,5.26-.56,6.69-1.21,1.35-3.09,1.63-4.46,1.63Zm-1.43-1.11c.47,.08,3.62,.52,5.15-1.18,1.05-1.18,1.15-3.18,.28-5.94l-.07-.21,22.36-37.31,7.65,4.11c1.04-.43,5.17-1.84,8.38,1.3l16.52,7.88,3.05-4.91c.55-.89,1.23-1.71,2.01-2.42,.54-.51,1.16-.95,1.81-1.32,1.72-.99,4.3-3.2,6.8-8.06,2.09-4.28,3.63-8.82,4.56-13.5v-.02c.19-.76-.2-1.54-.93-1.84-1.89-.8-5.8-2.41-10.8-4.23-8.91-3.36-18.15-6.01-27.48-7.87-12.83-2.34-21.32-1.37-25.21,2.91-1.57,1.77-2.05,4.26-1.25,6.49,.92,2.95,2.85,5.48,5.43,7.14l1.43,.92h-3.86l-3.26,2.24-28.66,48.09,16.09,7.73Z" fill="#002346"></path>
  </g>
  <g>
    <polygon points="513.77 428.22 505.67 502.35 686.38 462.97 687.57 380.73 513.77 428.22" fill="#fff"></polygon>
    <path d="M505.1,502.98l8.21-75.16,.33-.09,174.43-47.67-1.21,83.3-.39,.08-181.38,39.53Zm9.13-74.37l-7.99,73.1,179.63-39.15,1.17-81.18-172.82,47.23Z" fill="#002346"></path>
  </g>
  <polygon points="662.63 392.89 660.9 422.43 682.9 418.95 683.47 388.26 662.63 392.89" fill="#fff"></polygon>
  <g>
    <polygon points="686.38 462.97 753.57 540.58 750.08 462.97 687.57 380.73 686.38 462.97" fill="#e6e7e8"></polygon>
    <path d="M754.13,541.99l-68.26-78.84,1.21-83.88,63.49,83.52,3.55,79.2Zm-67.25-79.21l66.12,76.38-3.41-76.02-61.55-80.96-1.17,80.6Z" fill="#002346"></path>
  </g>
  <g>
    <polygon points="753.57 540.58 576.76 577.98 505.67 502.35 686.38 462.97 753.57 540.58" fill="#e6e7e8"></polygon>
    <path d="M576.58,578.53l-71.88-76.48,.86-.19,180.99-39.44,67.94,78.48-.83,.18-177.09,37.46Zm-69.94-75.88l70.28,74.78,175.71-37.17-66.44-76.75-179.55,39.13Z" fill="#002346"></path>
  </g>
  <g>
    <path d="M713.73,549.02s-.39,8.67-3.45,8.23l-1.17-7.23,4.62-1Z" fill="#f2b3c1"></path>
    <path d="M710.51,557.73c-.1,0-.19,0-.29-.02l-.34-.05-1.29-8,5.63-1.22-.03,.6c-.01,.26-.31,6.47-2.4,8.2-.39,.32-.82,.49-1.28,.49Zm-.87-7.35l1.04,6.41c.18-.03,.35-.12,.53-.26,1.32-1.1,1.88-4.94,2.03-6.93l-3.6,.78Z" fill="#002346"></path>
  </g>
  <g>
    <path d="M730.2,556.66s6-2.18,7.15-5.65l-3.58-6.24-6.81,1.44,3.24,10.45Z" fill="#f2b3c1"></path>
    <path d="M729.9,557.26l-3.53-11.4,7.63-1.61,3.85,6.71-.06,.2c-1.21,3.64-7.18,5.85-7.43,5.94l-.45,.17Zm-2.35-10.7l2.94,9.49c1.35-.56,5.34-2.41,6.35-4.99l-3.31-5.76-5.99,1.27Z" fill="#002346"></path>
  </g>
  <g>
    <path d="M752.85,524.89s7.17,8.85,6.26,14c0,0-4.92-4.29-5.82-4.2l-.44-9.8Z" fill="#f2b3c1"></path>
    <path d="M759.43,539.77l-.62-.54c-2.21-1.92-4.94-4.04-5.49-4.09l-.48,.05v-.49s-.5-11.2-.5-11.2l.88,1.09c.3,.37,7.29,9.07,6.36,14.37l-.14,.8Zm-5.69-5.44c1.14,.44,3.36,2.22,4.99,3.62,.02-3.82-3.63-9.25-5.35-11.61l.36,7.99Z" fill="#002346"></path>
  </g>
  <circle cx="482.27" cy="297.04" r="4.4" fill="#002346"></circle>
  <circle cx="483.66" cy="314.7" r="4.63" fill="#002346"></circle>
  <circle cx="484.47" cy="330.05" r="4.4" fill="#002346"></circle>
  <rect x="122.25" y="462.97" width="268.74" height="159.85" fill="#0172cf"></rect>
  <g>
    <rect x="122.25" y="462.97" width="268.74" height="159.85" fill="#fff"></rect>
    <path d="M391.49,623.32H121.76v-160.85H391.49v160.85Zm-268.74-1H390.49v-158.85H122.76v158.85Z" fill="#002346"></path>
  </g>
  <g>
    <rect x="81.71" y="462.97" width="40.54" height="159.85" fill="#e6e7e8"></rect>
    <path d="M122.76,623.32h-41.54v-160.85h41.54v160.85Zm-40.54-1h39.54v-158.85h-39.54v158.85Z" fill="#002346"></path>
  </g>
  <g>
    <rect x="349.29" y="526.68" width="132.05" height="96.14" fill="#fff"></rect>
    <path d="M481.84,623.32h-133.05v-97.14h133.05v97.14Zm-132.05-1h131.05v-95.14h-131.05v95.14Z" fill="#002346"></path>
  </g>
  <g>
    <rect x="202.19" y="526.68" width="147.11" height="96.14" fill="#e6e7e8"></rect>
    <path d="M349.79,623.32H201.68v-97.14h148.11v97.14Zm-147.11-1h146.11v-95.14H202.68v95.14Z" fill="#002346"></path>
  </g>
  <g>
    <rect x="172.06" y="462.97" width="92.67" height="48.65" fill="#e6e7e8"></rect>
    <path d="M265.23,512.12h-93.67v-49.65h93.67v49.65Zm-92.67-1h91.67v-47.65h-91.67v47.65Z" fill="#002346"></path>
  </g>
  <g>
    <path d="M579.8,383.02c0,9.27-10.42,7-10.42,7-1.16,11.59-11.59,10.43-11.59,10.43-4.65,4.3-10.08,5.17-15.36,4.31h0c-11.8-1.91-22.85-12.41-22.85-12.41l-43,15.49c-3.54,1.26-7,2.64-10.48,4.11h0c-5.74,2.44-11.38,5.17-16.89,8.13-71,38.14-101.1,37.1-101.1,37.1-6.65-1.24-12-11.87-16-25h0c-1.47-4.75-2.78-9.82-3.94-14.9h0c-2.92-13.24-5.16-26.62-6.7-40.09,30.72-16.69,62.16-.8,62.16-.8l.28,8.56,38.36-6.5c70.66-12.74,96.15-24.33,96.15-24.33,7-4.63,23.17-5.79,23.17-5.79,11.58-4.63,19.69,4.56,19.69,4.56l-3.48,2.39c2.32,5.79,23.17,16.22,23.17,16.22,6.95-2.32,8.11,1.16,8.11,1.16,3.46,11.54-9.28,10.36-9.28,10.36Z" fill="#f2b3c1"></path>
    <path d="M348.26,457.64c-.1,0-.15,0-.16,0-6.15-1.14-11.65-9.66-16.43-25.33-1.36-4.41-2.69-9.43-3.95-14.93-2.91-13.21-5.17-26.71-6.71-40.14l-.04-.31,.27-.15c30.58-16.61,62.27-.97,62.59-.81l.24,.12,.27,8.31,37.84-6.41c69.76-12.58,95.78-24.18,96.04-24.29,6.79-4.5,21.93-5.73,23.26-5.83,11.71-4.63,20.06,4.61,20.14,4.71l.34,.39-3.59,2.47c2.73,5.35,20.68,14.58,22.63,15.56,2.92-.94,5.21-1.01,6.83-.2,1.31,.66,1.67,1.67,1.68,1.72,1.04,3.45,.77,6.16-.79,8.06-2.37,2.9-6.96,2.99-8.48,2.93-.1,2.42-.92,4.27-2.45,5.5-2.66,2.14-6.62,1.77-8.02,1.55-.44,3.51-1.79,6.2-4,7.99-3.1,2.51-6.89,2.44-7.83,2.38-4.24,3.84-9.49,5.29-15.6,4.29-10.91-1.77-21.29-10.88-22.88-12.34l-42.74,15.4c-3.24,1.15-6.57,2.46-10.46,4.1-5.57,2.37-11.24,5.1-16.85,8.11-67.67,36.35-98.68,37.16-101.17,37.16Zm-26.29-80.2c1.54,13.3,3.77,26.66,6.66,39.73,1.25,5.48,2.57,10.48,3.93,14.86,4.6,15.1,10.01,23.63,15.64,24.68,.23,.01,30.78,.56,100.8-37.05,5.64-3.03,11.33-5.77,16.93-8.15,3.85-1.63,7.29-2.97,10.51-4.12l43.27-15.59,.21,.2c.11,.1,11.09,10.42,22.61,12.29,5.89,.96,10.93-.45,14.97-4.19l.15-.14,.21,.02s4.18,.42,7.37-2.17c2.11-1.71,3.36-4.35,3.71-7.85l.05-.51,.51,.11s4.89,1.02,7.75-1.28c1.4-1.13,2.12-2.91,2.12-5.27v-.5l.5,.05c.06,0,5.68,.48,8.17-2.57,1.35-1.65,1.56-4.07,.62-7.2-.04-.11-1.15-2.98-7.52-.86l-.18,.06-.17-.09c-.86-.43-21.03-10.58-23.39-16.46l-.14-.34,3.33-2.29c-1.69-1.65-9.02-7.97-18.81-4.06l-.14,.03c-.16,.01-16.13,1.2-22.95,5.71-.32,.15-26.41,11.79-96.32,24.4l-38.89,6.59-.29-8.81c-2.98-1.41-32.56-14.61-61.21,.76Z" fill="#002346"></path>
  </g>
  <g>
    <path d="M751.11,486.55s9.37-.41,9.37,5.38c0,0,2.61,7.84-8.54,13.19l-.83-18.57Z" fill="#f2b3c1"></path>
    <path d="M751.52,505.84l-.88-19.73,.46-.02c.23,0,5.7-.22,8.39,2.36,.95,.91,1.44,2.06,1.46,3.42,.24,.86,1.98,8.5-8.8,13.67l-.63,.3Zm.08-18.83l.78,17.39c9.91-5.08,7.77-12.02,7.67-12.32l-.02-.14c0-1.14-.38-2.06-1.17-2.81-1.99-1.9-5.91-2.1-7.25-2.11Z" fill="#002346"></path>
  </g>
  <g>
    <path d="M702.59,534.79s-5.79,0-2.32,12.74c0,0,3.48,11.58,8.11,10.43,0,0,5.79,1.15,1.16-13.9,0-.04-1.16-10.43-6.95-9.27Z" fill="#f2b3c1"></path>
    <path d="M707.74,558.5c-4.59,0-7.77-10.37-7.91-10.84-1.56-5.71-1.51-9.7,.14-11.85,1.01-1.32,2.29-1.46,2.57-1.48,1.39-.27,2.65,.05,3.74,.95,2.82,2.31,3.61,7.84,3.71,8.68,2.17,7.08,2.39,11.65,.65,13.58-.85,.95-1.89,.93-2.23,.89-.23,.05-.45,.07-.67,.07Zm-5.14-23.25c-.06,0-1.08,.04-1.91,1.14-.99,1.32-1.79,4.31,.03,11.01,.93,3.09,4.11,10.93,7.55,10.1l.1-.03,.1,.02s.84,.14,1.5-.6c.84-.95,1.85-3.87-.87-12.71l-.02-.07v-.07s-.71-6.09-3.55-8.2c-.85-.63-1.78-.83-2.85-.62h-.09Z" fill="#002346"></path>
  </g>
  <g>
    <path d="M716.65,528.83c-1.93,2.29-5.5,8.8-.15,22.18,0,0,4.88,9.43,11.13,7,0,0,6.24-1.24,2.77-8.19,0,0-5.61-10.61-5.7-15.15,0,0-1-6.55-5.5-7-.99-.06-1.94,.38-2.55,1.16Z" fill="#f2b3c1"></path>
    <path d="M725.48,558.89c-5.35,0-9.21-7.32-9.39-7.67-5.49-13.73-1.69-20.43,.2-22.68,.7-.9,1.8-1.41,2.94-1.33,4.82,.48,5.89,7.11,5.93,7.39,.09,4.44,5.6,14.9,5.65,15,1.22,2.44,1.43,4.49,.64,6.1-1.08,2.21-3.62,2.73-3.72,2.75-.77,.3-1.52,.43-2.24,.43Zm-6.47-30.77c-.77,0-1.51,.36-2,.99h-.01c-1.79,2.13-5.37,8.49-.07,21.73,.03,.05,4.74,8.98,10.53,6.74,.1-.03,2.28-.49,3.16-2.28,.66-1.35,.44-3.12-.63-5.27-.23-.43-5.66-10.75-5.75-15.35,0,0-1-6.14-5.08-6.55-.05,0-.1,0-.14,0Z" fill="#002346"></path>
  </g>
  <g>
    <path d="M728.11,530.61c-.91,1.8-1.78,5.12,.09,9.94,1.56,4.02,4.42,7.4,8.11,9.62,2.72,1.63,6,2.71,8.19,.54,0,0,6.72-3.18-1.39-11.29,0,0-6.3-8.66-11.11-10.4-1.51-.53-3.18,.15-3.89,1.59Z" fill="#f2b3c1"></path>
    <path d="M741.46,552.38c-1.55,0-3.36-.61-5.38-1.82-3.76-2.26-6.71-5.76-8.3-9.85-1.9-4.89-1.09-8.31-.07-10.31,.81-1.65,2.72-2.43,4.46-1.82,4.89,1.77,11.07,10.21,11.33,10.56,3.07,3.06,4.44,5.87,4.02,8.28-.4,2.32-2.32,3.44-2.73,3.66-.9,.86-2.01,1.3-3.32,1.3Zm-10.51-23.09c-1,0-1.96,.56-2.42,1.51h0c-.93,1.84-1.67,5,.11,9.57,1.52,3.9,4.33,7.24,7.92,9.39,2.34,1.4,5.57,2.65,7.63,.61l.13-.09s1.94-.95,2.29-3.03c.36-2.1-.92-4.63-3.81-7.52-.11-.14-6.32-8.62-10.94-10.29-.29-.1-.6-.15-.9-.15Z" fill="#002346"></path>
  </g>
  <g>
    <path d="M743.95,529.47s-3.13,3,0,8.2c0,0,8.46,9.86,13.09,6.39,0,0,4.21-2,1.17-7.3-.74-1.25-1.67-2.37-2.77-3.32-2.66-2.37-8.58-6.98-11.49-3.97Z" fill="#f2b3c1"></path>
    <path d="M754.73,545.29c-4.79,0-10.84-6.97-11.14-7.32-3.22-5.34-.2-8.59,.02-8.82h0c3.1-3.21,8.93,1.1,12.13,3.95,1.13,.98,2.1,2.13,2.86,3.43,1.11,1.93,1.43,3.68,.96,5.2-.6,1.92-2.25,2.72-2.32,2.75-.76,.57-1.61,.81-2.5,.81Zm-10.47-15.49c-.12,.12-2.81,2.84,.08,7.63,.04,.03,8.19,9.43,12.42,6.26,.09-.05,1.45-.73,1.92-2.26,.39-1.26,.09-2.75-.88-4.44-.71-1.21-1.61-2.28-2.67-3.2-2.38-2.12-8.2-6.75-10.86-4h-.01Z" fill="#002346"></path>
  </g>
  <g>
    <rect x="197.54" y="504.67" width="155.22" height="38.23" fill="#e6e7e8"></rect>
    <path d="M353.27,543.4H197.04v-39.23h156.22v39.23Zm-155.22-1h154.22v-37.23H198.04v37.23Z" fill="#002346"></path>
  </g>
  <g>
    <rect x="262.41" y="504.67" width="27.8" height="78.77" fill="#fff"></rect>
    <path d="M290.71,583.94h-28.8v-79.77h28.8v79.77Zm-27.8-1h26.8v-77.77h-26.8v77.77Z" fill="#002346"></path>
  </g>
  <g>
    <rect x="352.76" y="504.67" width="132.05" height="38.23" fill="#fff"></rect>
    <path d="M485.32,543.4h-133.05v-39.23h133.05v39.23Zm-132.05-1h131.05v-37.23h-131.05v37.23Z" fill="#002346"></path>
  </g>
  <g>
    <rect x="101.05" y="163.88" width="3.23" height="152.95" fill="#002346"></rect>
    <rect x="106.64" y="163.88" width="3.23" height="152.95" fill="#002346"></rect>
    <rect x="119.89" y="163.88" width="3.23" height="139.16" fill="#002346"></rect>
    <rect x="150.49" y="163.88" width="3.23" height="139.16" fill="#002346"></rect>
    <rect x="171.38" y="163.88" width="3.23" height="139.16" fill="#002346"></rect>
    <rect x="193.46" y="163.88" width="3.23" height="139.16" fill="#002346"></rect>
    <rect x="199.34" y="163.88" width="3.23" height="152.95" fill="#002346"></rect>
    <rect x="205.22" y="163.88" width="3.23" height="152.95" fill="#002346"></rect>
    <rect x="226.71" y="163.88" width="3.23" height="139.16" fill="#002346"></rect>
    <rect x="249.08" y="163.88" width="3.23" height="139.16" fill="#002346"></rect>
    <rect x="270.57" y="163.88" width="3.23" height="139.16" fill="#002346"></rect>
    <rect x="276.74" y="163.88" width="3.24" height="139.16" fill="#002346"></rect>
    <rect x="292.04" y="163.88" width="3.23" height="139.16" fill="#002346"></rect>
    <rect x="298.52" y="163.88" width="3.23" height="152.95" fill="#002346"></rect>
    <rect x="304.69" y="163.88" width="3.23" height="152.95" fill="#002346"></rect>
    <rect x="125.47" y="163.88" width="5.88" height="139.16" fill="#002346"></rect>
    <rect x="134.89" y="163.88" width="5.88" height="139.16" fill="#002346"></rect>
    <rect x="162.55" y="163.88" width="5.88" height="139.16" fill="#002346"></rect>
    <rect x="177.86" y="163.88" width="5.88" height="139.16" fill="#002346"></rect>
    <rect x="212.29" y="163.88" width="8.53" height="139.16" fill="#002346"></rect>
    <rect x="233.48" y="163.88" width="8.53" height="139.16" fill="#002346"></rect>
    <rect x="255.55" y="163.88" width="8.53" height="139.16" fill="#002346"></rect>
    <path d="M128.44,333.11c-1.15,.06-2.29-.23-3.27-.82-.83-.57-1.46-1.39-1.79-2.34-.4-1.13-.59-2.33-.56-3.53-.02-.87,.09-1.75,.31-2.59,.17-.62,.44-1.2,.81-1.73,.31-.41,.69-.77,1.12-1.05,.39-.26,.79-.5,1.2-.71-.96-.39-1.77-1.08-2.32-1.95-.64-1.1-.95-2.37-.89-3.64,0-1.05,.17-2.1,.53-3.09,.33-.87,.94-1.61,1.73-2.11,.96-.56,2.06-.82,3.17-.76,1.09-.06,2.18,.21,3.12,.77,.76,.52,1.35,1.25,1.69,2.11,.37,1,.55,2.06,.53,3.12,.06,1.26-.24,2.5-.87,3.59-.56,.86-1.36,1.54-2.31,1.94,.41,.21,.81,.45,1.19,.71,.41,.29,.77,.64,1.06,1.05,.37,.52,.65,1.11,.83,1.72,.23,.85,.34,1.72,.32,2.6,.02,1.2-.17,2.39-.56,3.53-.33,.95-.95,1.77-1.78,2.33-.98,.6-2.11,.9-3.26,.85Zm0-1.7c.69,.03,1.37-.16,1.94-.55,.56-.41,.96-.99,1.15-1.65,.48-1.75,.48-3.61,0-5.36-.17-.67-.51-1.29-1-1.78-.58-.48-1.3-.75-2.05-.77-.77,.01-1.51,.29-2.11,.77-.54,.47-.92,1.09-1.12,1.78-.24,.83-.36,1.7-.34,2.57-.03,.95,.11,1.89,.4,2.79,.38,1.41,1.72,2.33,3.17,2.2h-.04Zm0-12.08c.7,0,1.39-.23,1.93-.68,.48-.44,.83-1.02,1-1.65,.2-.76,.29-1.54,.28-2.32,.08-1.11-.19-2.22-.76-3.17-.59-.74-1.51-1.14-2.45-1.06-.95-.08-1.88,.32-2.48,1.06-.59,.95-.86,2.06-.78,3.17-.02,.78,.08,1.57,.29,2.32,.17,.65,.54,1.22,1.06,1.65,.54,.43,1.22,.67,1.91,.68Z" fill="#002346"></path>
    <path d="M146.11,333.11c-1.03,.04-2.06-.17-3-.61-.79-.4-1.43-1.06-1.81-1.87-.43-.97-.65-2.03-.64-3.09v-.43h2.11c-.09,1.13,.16,2.25,.73,3.23,1.19,1.08,2.94,1.28,4.35,.51,.54-.39,.93-.96,1.11-1.61,.29-.99,.42-2.02,.38-3.05v-4.5c-.39,.43-.86,.77-1.39,1-.77,.31-1.6,.46-2.43,.44-1.08,.06-2.16-.2-3.09-.75-.8-.56-1.36-1.39-1.6-2.33-.34-1.3-.5-2.65-.46-4-.03-1.3,.16-2.6,.57-3.84,.33-1,.97-1.88,1.82-2.51,.98-.64,2.13-.95,3.29-.9,1.13-.05,2.24,.26,3.17,.9,.84,.64,1.46,1.54,1.76,2.56,.4,1.29,.59,2.65,.56,4v9.5c.02,1.31-.15,2.61-.53,3.86-.28,1.03-.87,1.94-1.69,2.62-.94,.65-2.07,.96-3.21,.87Zm-.08-11.69c.73,.03,1.46-.12,2.11-.46,.46-.24,.88-.55,1.24-.93v-4.08c.02-1.07-.09-2.13-.34-3.17-.25-1.43-1.56-2.42-3-2.28-.68-.03-1.36,.16-1.93,.54-.56,.41-.97,.99-1.16,1.66-.28,.92-.41,1.87-.38,2.83-.02,1.09,.05,2.19,.22,3.27,.08,.74,.42,1.42,.95,1.94,.64,.49,1.44,.73,2.25,.68h.04Z" fill="#002346"></path>
    <path d="M165.11,332.85v-7h-7.18v-2.2l6.73-14.63h2.53v14.93h2.74v1.94h-2.74v7l-2.08-.04Zm-5-8.93h5v-12.1l-5,12.1Z" fill="#002346"></path>
    <path d="M176.82,332.85l4.66-22.18h-7.22v-1.74h9.43v1.09l-4.78,22.86-2.09-.03Z" fill="#002346"></path>
    <path d="M224.16,333.11c-1.19,.07-2.37-.25-3.36-.91-.83-.63-1.45-1.5-1.76-2.5-.37-1.17-.55-2.39-.53-3.62v-10.38c-.02-1.23,.16-2.46,.55-3.63,.32-.99,.95-1.85,1.8-2.46,.98-.63,2.13-.94,3.3-.88,1.18-.06,2.36,.24,3.36,.88,.84,.61,1.46,1.47,1.78,2.46,.39,1.17,.57,2.4,.55,3.63v10.38c.02,1.24-.16,2.47-.53,3.65-.31,1-.93,1.87-1.77,2.48-1.01,.65-2.19,.97-3.39,.9Zm0-1.7c.77,.05,1.52-.21,2.11-.7,.52-.5,.89-1.14,1.06-1.85,.21-.85,.31-1.73,.31-2.61v-10.68c0-.88-.1-1.76-.31-2.61-.17-.71-.54-1.35-1.06-1.85-.6-.47-1.35-.71-2.11-.68-.76-.04-1.51,.2-2.11,.68-.53,.5-.9,1.14-1.06,1.85-.22,.85-.33,1.73-.31,2.61v10.68c-.01,.88,.09,1.76,.31,2.61,.16,.71,.53,1.35,1.06,1.85,.59,.49,1.34,.75,2.11,.7h0Z" fill="#002346"></path>
    <path d="M242.35,333.11c-1.19,.07-2.37-.25-3.36-.91-.84-.63-1.45-1.5-1.76-2.5-.38-1.17-.56-2.39-.53-3.62v-10.38c-.02-1.23,.16-2.46,.54-3.63,.32-.99,.95-1.85,1.79-2.46,2.07-1.17,4.61-1.17,6.68,0,.84,.61,1.46,1.47,1.77,2.46,.39,1.17,.57,2.4,.55,3.63v10.38c.02,1.24-.16,2.47-.53,3.65-.31,.99-.92,1.86-1.76,2.48-1.01,.65-2.19,.97-3.39,.9Zm0-1.7c.77,.04,1.52-.21,2.11-.7,.52-.5,.89-1.14,1.06-1.85,.22-.85,.32-1.73,.31-2.61v-10.68c.01-.88-.09-1.76-.31-2.61-.16-.71-.53-1.35-1.06-1.85-1.27-.89-2.95-.89-4.22,0-.53,.5-.9,1.14-1.06,1.85-.21,.85-.32,1.73-.31,2.61v10.68c0,.88,.1,1.76,.31,2.61,.16,.71,.53,1.35,1.06,1.85,.58,.5,1.34,.75,2.11,.7h0Z" fill="#002346"></path>
    <path d="M260.51,333.11c-1.19,.07-2.36-.25-3.35-.91-.84-.63-1.46-1.5-1.77-2.5-.36-1.17-.54-2.39-.53-3.62v-10.38c-.02-1.23,.17-2.46,.55-3.63,.32-.99,.95-1.85,1.8-2.46,.98-.63,2.14-.94,3.3-.88,1.18-.06,2.36,.24,3.36,.88,.84,.61,1.47,1.47,1.79,2.46,.38,1.17,.56,2.4,.55,3.63v10.38c.02,1.24-.17,2.47-.54,3.65-.31,1-.93,1.87-1.77,2.48-1.01,.65-2.19,.97-3.39,.9Zm0-1.7c.77,.04,1.53-.21,2.12-.7,.52-.5,.88-1.15,1.05-1.85,.21-.85,.32-1.73,.31-2.61v-10.68c0-.88-.1-1.76-.31-2.61-.17-.7-.53-1.35-1.05-1.85-.6-.47-1.36-.71-2.12-.68-.76-.04-1.51,.2-2.11,.68-.51,.5-.86,1.15-1,1.85-.23,.85-.33,1.73-.32,2.61v10.68c0,.88,.1,1.76,.32,2.61,.14,.7,.49,1.35,1,1.85,.59,.49,1.34,.75,2.11,.7h0Z" fill="#002346"></path>
    <path d="M274.11,332.85l4.64-22.13h-7.21v-1.7h9.42v1l-4.76,22.81-2.09,.02Z" fill="#002346"></path>
  </g>
  <g>
    <rect x="434.38" y="70.38" width="92" height="148" rx="44.99" ry="44.99" fill="#f2b3c1"></rect>
    <path d="M481.39,218.85h-2.02c-25.06,0-45.45-20.39-45.45-45.45v-58.02c0-25.06,20.39-45.45,45.45-45.45h2.02c25.06,0,45.45,20.39,45.45,45.45v58.02c0,25.06-20.39,45.45-45.45,45.45Zm-2.02-148c-24.55,0-44.53,19.97-44.53,44.53v58.02c0,24.55,19.98,44.53,44.53,44.53h2.02c24.55,0,44.53-19.98,44.53-44.53v-58.02c0-24.55-19.98-44.53-44.53-44.53h-2.02Z" fill="#002346"></path>
  </g>
  <g>
    <path d="M535.77,104.81c-.22,.83-8.76,31-32,22-4.56-1.57-8.76-4.03-12.36-7.24l-.19-.16-1.77-1.67s1.16,9.27,8.11,13.9c0,0-18.54,5.79-31.28-2.32,0,0-6.95-2.31-11.58-11.58,0,0-5.79,4.63-4.64,15.06,0,0,3.18,13.31-10.56,25.76h0l-5.89,8.63c.75,10-1.07,21.11-1.79,24.94-.08,.46-.19,.93-.28,1.4-3.02-5.92-7.11-11.24-12.06-15.68-4.65-3.87-8.44-8.67-11.12-14.1-1.56-3.3-2.85-6.72-3.84-10.23-2.12-7.42-2.99-15.13-2.59-22.83,.46-8.67,2.39-17.2,5.71-25.23h0c.44-1.09,.9-2.17,1.4-3.23,7.52-16.21,21.5-33.71,45.86-27.19,0,0,4.42-23.69,36.23-11.48,13.95,5.36,25.59,15.43,32.9,28.46,.05,.11,.11,.21,.17,.32s3.47,5.79,11.58,3.47c0,0-1.15,8.11-4.63,9.27,1.41,1.03,3.34,.92,4.62-.27Z" fill="#002346"></path>
    <path d="M431.76,195.05l-.66-1.3c-3-5.89-7.02-11.12-11.95-15.54-4.72-3.93-8.51-8.73-11.23-14.25-1.57-3.32-2.87-6.79-3.87-10.32-2.14-7.48-3.01-15.22-2.61-22.99,.47-8.75,2.4-17.29,5.75-25.39,.5-1.23,.96-2.29,1.41-3.25,7.46-16.08,21.47-33.85,45.94-27.59,.48-1.91,2.57-8.47,9.3-12.23,6.79-3.8,16.04-3.49,27.48,.9,14.03,5.39,25.8,15.58,33.16,28.68,.05,.11,.09,.17,.12,.23l.05,.09s3.25,5.45,11,3.23l.74-.21-.11,.76c-.04,.31-1.04,7.1-4.06,9.21,1.08,.4,2.33,.17,3.21-.65l1.27-1.18-.44,1.67c-.04,.16-4.42,16.25-15.76,22.02-5.08,2.59-10.77,2.69-16.91,.32-4.63-1.59-8.85-4.06-12.51-7.33l-.18-.15-.66-.62c.65,2.76,2.57,8.71,7.6,12.05l.87,.58-1,.31c-.19,.06-18.86,5.75-31.65-2.34-.73-.26-7.02-2.7-11.5-11.21-1.3,1.35-4.92,5.91-4,14.18,.02,.07,3.07,13.65-10.68,26.15l-5.76,8.44c.74,10.24-1.2,21.63-1.81,24.9-.05,.27-.1,.54-.16,.82-.04,.19-.08,.39-.12,.58l-.27,1.43Zm13.1-120.9c-18.09,0-29.09,14.76-35.37,28.29-.45,.95-.9,1.99-1.39,3.21-3.3,8-5.21,16.43-5.67,25.07-.4,7.66,.47,15.29,2.57,22.67,.98,3.47,2.27,6.89,3.81,10.15,2.66,5.39,6.36,10.08,10.99,13.93,4.68,4.19,8.55,9.09,11.53,14.58h0c.61-3.26,2.55-14.66,1.78-24.82v-.17s6.05-8.86,6.05-8.86c13.34-12.09,10.44-25.14,10.41-25.27-1.18-10.64,4.57-15.37,4.81-15.57l.48-.39,.28,.55c4.47,8.96,11.22,11.31,11.29,11.33l.11,.05c10.74,6.83,25.88,3.57,29.87,2.54-6.3-4.84-7.42-13.26-7.47-13.64l-.17-1.38,2.95,2.77c3.58,3.19,7.68,5.6,12.2,7.15,5.88,2.28,11.29,2.18,16.11-.27,9.1-4.64,13.58-16.24,14.85-20.11-1.31,.54-2.84,.4-4.04-.48l-.78-.57,.92-.31c2.35-.78,3.7-5.58,4.17-8.12-7.99,1.87-11.37-3.85-11.4-3.91-.1-.17-.14-.26-.19-.35-7.22-12.86-18.81-22.89-32.62-28.2-11.16-4.28-20.12-4.61-26.64-.96-7.36,4.12-8.91,11.99-8.92,12.07l-.1,.53-.52-.14c-3.52-.94-6.82-1.37-9.91-1.37Z" fill="#002346"></path>
  </g>
  <g>
    <ellipse cx="429.27" cy="158.61" rx="9.85" ry="16.02" transform="translate(-28.36 156.78) rotate(-20.05)" fill="#f2b3c1"></ellipse>
    <path d="M432.58,174.5c-2.02,0-4.17-.85-6.26-2.5-2.85-2.26-5.24-5.76-6.74-9.86-3.12-8.54-1.31-17.07,4.04-19.02h0c5.34-1.95,12.22,3.41,15.34,11.95,3.12,8.54,1.3,17.07-4.04,19.02-.75,.27-1.53,.41-2.34,.41Zm-8.65-30.51h0c-4.86,1.77-6.43,9.78-3.49,17.83,1.44,3.94,3.73,7.3,6.45,9.45,2.65,2.1,5.39,2.79,7.71,1.95,4.86-1.77,6.43-9.78,3.49-17.83-2.94-8.06-9.29-13.18-14.15-11.4Z" fill="#002346"></path>
  </g>
  <path d="M579.68,383.52c-1.08,0-7.39-.39-17.61-8.75-.21-.17-.25-.49-.07-.7,.17-.21,.49-.25,.7-.07,10.72,8.78,17.02,8.53,17.08,8.52,.28-.02,.51,.19,.53,.47,.02,.28-.2,.51-.47,.53-.02,0-.07,0-.16,0Z" fill="#002346"></path>
  <path d="M569.39,390.52s-.09,0-.14-.02c-.31-.09-7.72-2.26-13.75-9.29-.18-.21-.16-.53,.05-.71,.21-.18,.53-.15,.71,.05,5.82,6.79,13.19,8.96,13.26,8.98,.27,.08,.42,.35,.34,.62-.06,.22-.26,.36-.48,.36Z" fill="#002346"></path>
  <path d="M557.8,400.95s-.09,0-.13-.02c-.25-.07-6.16-1.71-13.18-10.74-.17-.22-.13-.53,.09-.7,.22-.17,.53-.13,.7,.09,6.79,8.73,12.59,10.37,12.65,10.39,.27,.07,.42,.35,.35,.61-.06,.22-.26,.37-.48,.37Z" fill="#002346"></path>
  <path d="M385.88,377.07c-1.42,0-2.32-.19-2.36-.2-.27-.06-.44-.33-.38-.6,.06-.27,.33-.44,.6-.38,.48,.11,11.88,2.46,17.16-11.57,.07-.23,7.69-26.45,8.08-68.17,0-.27,.23-.5,.5-.5h0c.28,0,.5,.23,.5,.5-.39,41.87-8.05,68.22-8.13,68.48-4.12,10.95-12.03,12.42-15.97,12.42Z" fill="#002346"></path>
  <path d="M473.38,345.88c-.21,0-.4-.13-.47-.34-15.88-45.66-7.08-66.8-6.99-67.01,.11-.25,.4-.37,.66-.26,.25,.11,.37,.4,.26,.66-.09,.21-8.71,21.05,7.02,66.28,.09,.26-.05,.55-.31,.64-.05,.02-.11,.03-.16,.03Z" fill="#002346"></path>
  <path d="M554.09,348.99c-.2,0-.38-.12-.46-.31l-18.71-45.11c-.11-.25,.02-.55,.27-.65,.25-.11,.55,.02,.65,.27l18.71,45.11c.11,.25-.02,.55-.27,.65-.06,.03-.13,.04-.19,.04Z" fill="#002346"></path>
  <path d="M604.38,370.88c-.07,0-.13-.01-.2-.04l-40.75-17.47c-.25-.11-.37-.4-.26-.66,.11-.25,.4-.37,.66-.26l40.75,17.47c.25,.11,.37,.4,.26,.66-.08,.19-.27,.3-.46,.3Z" fill="#002346"></path>
  <path d="M845.38,623.32H20.38c-.28,0-.5-.22-.5-.5s.22-.5,.5-.5H845.38c.28,0,.5,.22,.5,.5s-.22,.5-.5,.5Z" fill="#002346"></path>
  <g>
    <ellipse cx="480.83" cy="120.73" rx="41" ry="27.5" fill="#002346"></ellipse>
    <path d="M480.83,148.73c-22.88,0-41.5-12.56-41.5-28s18.62-28,41.5-28,41.5,12.56,41.5,28-18.62,28-41.5,28Zm0-55c-22.33,0-40.5,12.11-40.5,27s18.17,27,40.5,27,40.5-12.11,40.5-27-18.17-27-40.5-27Z" fill="#002346"></path>
  </g>
</svg>
