<svg id="f6e11656-0cfd-4181-ad68-793766495138" data-name="Layer 1" xmlns="http://www.w3.org/2000/svg" xmlns:xlink="http://www.w3.org/1999/xlink" width="865.76" height="682.89" viewBox="0 0 865.76 682.89"><defs><clipPath id="a877d6c3-794f-4ba5-95f3-4496895bcba1"><path id="f906595d-bbd9-49f0-9a59-ae32b9251f99" data-name="SVGID" d="M740.23-565.87c-62.31-66.72-149.3-111.11-243.48-114-134.13-4.07-203.23,101.61-302.82,150.39S25.24-438,13.05-342.45,11-157.51,94.34-112.79s134.14-30.49,241.86-26.43S509-13.21,644.1-49.79C733-73.87,799-162.12,823.74-247,857.68-363.28,818.35-482.18,740.23-565.87Z" fill="none"/></clipPath></defs><g clip-path="url(#a877d6c3-794f-4ba5-95f3-4496895bcba1)"><g opacity="0.2"><path d="M412.14,40.56a32.12,32.12,0,0,0-.31-5.08c-.44-6-1.11-13.84-1.82-23.39-1.68-19.68-4.2-46.91-7.11-76.93-.93-9.38-1.82-18.53-2.7-27.2v-.53l-.4-.31-44.21-35.94c-.84-7.17-1.55-13.27-2.08-17.69-.4-3-.71-5-.89-5.88a3.27,3.27,0,0,0,1.46,0,3.85,3.85,0,0,0,3.46-4.2,3.86,3.86,0,0,0-4.2-3.46,3.85,3.85,0,0,0-3.46,4.2h0a3.79,3.79,0,0,0,2.48,3.19c0,.84,0,2.87.26,6.05.36,4.42.8,10.66,1.37,18v.31l.27.27,43.68,36.47C398.74-83,399.58-74,400.46-65c2.92,30,5.71,57.22,7.87,76.89,1.11,9.46,2,17.29,2.7,23.26l.66,5.08a3.84,3.84,0,0,0-2.29,1.33h6.05A3.88,3.88,0,0,0,412.14,40.56Z" fill="#fff"/><path d="M357.75-46c-1-10.7-2.08-21-3.05-30.95v-.45l-.53-.35-24-14.94-.35-.27h-.4l-55.13,5.88-15.61,1.86-1.82.22a3.8,3.8,0,0,0-4.11-3.14,3.85,3.85,0,0,0-3.26,4.35,3.84,3.84,0,0,0,4,3.3,3.8,3.8,0,0,0,3.41-3.89h1.81l15.7-1.2,54.82-4.86,23,14.59c1,9.73,1.94,19.9,2.91,30.33l8.4,83.08,2,.31C363.41,14.61,360.72-14.44,357.75-46Z" fill="#fff"/><path d="M394.89,18.32l.36-.44v-.53c-4-41.16-7.87-79.89-11.19-113.81v-.48l-.4-.31L349.93-124.8c-3-29-5.49-52.79-7.21-69.55-.88-8.09-1.64-14.5-2.12-19.1-.27-2-.44-3.58-.62-4.86h.79a3.85,3.85,0,0,0,3.46-4.21A3.85,3.85,0,0,0,340-226a3.85,3.85,0,0,0-3.46,4.2h0a3.76,3.76,0,0,0,3.1,3.31,31,31,0,0,0,.31,5c.4,4.42.93,11.05,1.59,19.18,1.55,16.85,3.71,40.77,6.37,70v.4l.31.31,33.51,27.72c3.23,33.69,6.9,72,10.79,112.79l-3.71,4.42L374.38,39.06l3.14.35c4.42-5.21,8.84-10.7,13.26-16.27Z" fill="#fff"/><path d="M747.73-151.73,555.57-133.42l-42.14,4.11h-.93l-.22.89L499-78.64v.44c4.42,42.94,8.18,80.74,11.19,110.54l1.63-.4c-2.78-29.67-6.28-67.34-10.3-110.09,4.42-15.48,8.84-31.79,13.26-48.64l41.21-4,192.12-19,9.15-1,1.06-1.85Z" fill="#fff"/></g></g><path d="M26.31,474.18s-38.09-45.34,3-87.45c2.45-2.5,4.8-5.09,7-7.82,9.89-12.38,31.75-43.52,27.41-72.45-.14-1-.36-1.9-.59-2.84C60,291.13,37.9,190,134.41,158.84c0,0,61.66-28.81,125.75,9.17A122.9,122.9,0,0,1,277,180.09C292.9,193.6,356,239,445.43,200.63A131.22,131.22,0,0,0,471,186.08c30.41-22.13,143-92.25,220.94,17.9,0,0,78.32,74.74,36.72,270.2Z" fill="#368ff5"/><path d="M26.31,474.18s-38.09-45.34,3-87.45c2.45-2.5,4.8-5.09,7-7.82,9.89-12.38,31.75-43.52,27.41-72.45-.14-1-.36-1.9-.59-2.84C60,291.13,37.9,190,134.41,158.84c0,0,61.66-28.81,125.75,9.17A122.9,122.9,0,0,1,277,180.09C292.9,193.6,356,239,445.43,200.63A131.22,131.22,0,0,0,471,186.08c30.41-22.13,143-92.25,220.94,17.9,0,0,78.32,74.74,36.72,270.2Z" fill="#fff" opacity="0.7"/><rect x="760.13" y="318.69" width="0.67" height="26.36" transform="translate(-66.35 401.24) rotate(-28.37)" fill="#0071f2"/><rect x="774.28" y="306.39" width="0.67" height="53.44" transform="translate(20.17 709.68) rotate(-49.79)" fill="#0071f2"/><path d="M349.92,430.27c.58.05,7.53.29,10.6-16.06l-2.41-25.37s-13,10.5-8.23,41.38A0,0,0,0,0,349.92,430.27Z" fill="#0071f2"/><path d="M349.92,430.27c.58.05,7.53.29,10.6-16.06l-2.41-25.37s-13,10.5-8.23,41.38A0,0,0,0,0,349.92,430.27Z" opacity="0.2"/><path d="M97.47,474.18s10.48-47.24,30.63-65L213.58,418s15.49,22.33,15.75,56.2Z" fill="#2f2e41"/><path d="M132.65,412.05c-1,2.48-2.05,5-3,7.5s-1.91,5-2.79,7.57c-1.79,5.08-3.46,10.19-4.93,15.37s-2.73,10.4-3.77,15.68c-.44,2.65-1,5.29-1.23,8-.15,1.34-.38,2.67-.44,4l-.28,4a100.08,100.08,0,0,1,1.44-16.11c.94-5.31,2.21-10.56,3.64-15.76S124.48,432,126.37,427,130.31,416.91,132.65,412.05Z" opacity="0.2"/><path d="M357.93,388.67l0,0c-.3.35-3.33,3.95-5.75,11a1,1,0,0,1,0,.16,57.4,57.4,0,0,0-2.68,12.92v.05a76.56,76.56,0,0,0,.46,17.4l-66.7-.19s-31.82-.77-41-24.53c0,0-10.38-19.55-16.31-21.28,0,0-8.22,26.26-12.44,33.55,0,0-48.49,16.67-85.48-8.82l-2.88-41-8.58,21.63a16.24,16.24,0,0,0-1.14,5.24,41.55,41.55,0,0,1-1.36,8.73,42.56,42.56,0,0,1-3.14,8.26l-1.36,2.66a4.06,4.06,0,0,0,2,5.56l57.47,25s-8.81.77-15.33,33l-26.45-2.3s-39.87-14.95-59-30.67c0,0-12.26-6.51-5-38.71,0,0,9.74-43.49,32.54-86.39a39.49,39.49,0,0,1,10.71-12.77,85.8,85.8,0,0,1,36.87-16.62H205s30.29,10.35,49.84,43.33c0,0,29.9,53.09,44.86,54.23C302.54,388.67,357.93,388.67,357.93,388.67Z" fill="#0071f2"/><path d="M136,292.43c1.32,4.23,2.64,8.45,3.92,12.69s2.59,8.47,3.84,12.71v0a6,6,0,0,0,2.24,2.32,6.28,6.28,0,0,0,3.15.86,10,10,0,0,0,3.29-.51l.81-.25.78-.33.39-.17c.14-.05.23-.1.44-.17a1.17,1.17,0,0,1,1.12.27,1.21,1.21,0,0,1,.38,1.08l-.19.86-.38,1.68a19.43,19.43,0,0,0-.48,3.36,6.37,6.37,0,0,0,.66,3.18,3.41,3.41,0,0,0,.45.67,3.1,3.1,0,0,0,.55.59,4.05,4.05,0,0,0,1.4.76,5.13,5.13,0,0,0,1.61.21l1.74,0c1.15,0,2.3,0,3.46.08,2.3.09,4.61.25,6.9.5a54.45,54.45,0,0,1,6.83,1.17,25.52,25.52,0,0,1,6.46,2.41,26.2,26.2,0,0,0-6.52-2.18,59.75,59.75,0,0,0-6.81-1c-2.29-.22-4.58-.34-6.88-.38-1.15,0-2.29,0-3.44,0l-1.72,0a5.49,5.49,0,0,1-1.8-.22,4.63,4.63,0,0,1-1.62-.87,3.63,3.63,0,0,1-.63-.67,4.36,4.36,0,0,1-.52-.75,7,7,0,0,1-.75-3.5,19.07,19.07,0,0,1,.47-3.47l.37-1.69.17-.83a.51.51,0,0,0-.16-.48.49.49,0,0,0-.48-.13l-.36.14-.41.17-.81.34c-.27.1-.56.17-.84.26a10.6,10.6,0,0,1-3.5.51,6.86,6.86,0,0,1-3.44-1,6.58,6.58,0,0,1-2.47-2.6v0c-1.25-4.25-2.43-8.51-3.65-12.77S137.11,296.7,136,292.43Z" opacity="0.2"/><path d="M213.56,294.52a78.86,78.86,0,0,1,1.9,8.18c.23,1.38.43,2.77.53,4.18a11.73,11.73,0,0,1,0,2.14,6.15,6.15,0,0,1-.66,2.09,6.21,6.21,0,0,1-1.32,1.74,8.68,8.68,0,0,1-1.79,1.21l-1.81,1.05-.2.12v0s-.11-.08.14,0,.65.29,1,.45a11.22,11.22,0,0,1,3.51,2.48,2.89,2.89,0,0,1,.83,2.13,3,3,0,0,1-1.17,1.95h0l0,0q-4.08,2.48-8.21,4.88T198,331.94q4-2.6,8.05-5.14c2.7-1.69,5.4-3.38,8.12-5l0,0a2.43,2.43,0,0,0,.94-1.55,2.36,2.36,0,0,0-.69-1.65,11.69,11.69,0,0,0-3.32-2.31l-.93-.44-.12,0a.73.73,0,0,1-.2-.13.61.61,0,0,1-.2-.49.64.64,0,0,1,.26-.47l.25-.14,1.83-1a7.35,7.35,0,0,0,1.68-1.12,5.63,5.63,0,0,0,1.22-1.56,6,6,0,0,0,.62-1.89,12.57,12.57,0,0,0,0-2c-.07-1.39-.22-2.77-.42-4.15Q214.48,298.62,213.56,294.52Z" opacity="0.2"/><path d="M222,313.23c.18,3.1.42,6.19.76,9.27s.73,6.15,1.26,9.2a70.47,70.47,0,0,0,2.12,9l.35,1.1.43,1.07c.14.36.27.72.42,1.07l.52,1c.33.69.74,1.36,1.12,2s.72,1.39,1,2.11a25.89,25.89,0,0,1,1.53,4.44c.4,1.51.69,3,.95,4.58a41.12,41.12,0,0,1,.44,9.34,30.56,30.56,0,0,1-2,9.1,26.53,26.53,0,0,1-4.92,7.88,28.64,28.64,0,0,0,6.43-17,43.63,43.63,0,0,0-.54-9.2c-.25-1.52-.56-3-1-4.52a25.57,25.57,0,0,0-1.52-4.33c-.31-.7-.65-1.39-1-2.07s-.76-1.33-1.1-2.05l-.53-1.05c-.16-.37-.29-.73-.43-1.1l-.43-1.09-.35-1.12a63.44,63.44,0,0,1-2.05-9.11A137.14,137.14,0,0,1,222,313.23Z" opacity="0.2"/><path d="M191.45,331.77a65,65,0,0,1,7.89,21.1,55.55,55.55,0,0,1,.91,11.3,47.28,47.28,0,0,1-1.68,11.22,43.93,43.93,0,0,1-4.49,10.42c-.24.4-.46.83-.73,1.22l-.79,1.18-.79,1.17a7.76,7.76,0,0,0-.71,1.17,9.93,9.93,0,0,0-.89,2.59,13.25,13.25,0,0,0-.2,2.76l-.09,11.3-.16,11.29-.17-11.29-.09-11.3a13.24,13.24,0,0,1,.16-2.87,10.07,10.07,0,0,1,1.67-4l.78-1.17.77-1.16c.26-.39.48-.81.72-1.21a43.37,43.37,0,0,0,4.36-10.29,46.52,46.52,0,0,0,1.72-11.06,58.33,58.33,0,0,0-.81-11.19A66.17,66.17,0,0,0,196,342.08,64.86,64.86,0,0,0,191.45,331.77Z" opacity="0.2"/><path d="M129.21,343.22a40.14,40.14,0,0,1,.67,6.39,42,42,0,0,1-.26,6.44,30.38,30.38,0,0,1-1.44,6.31c-.17.51-.41,1-.61,1.5-.11.24-.2.49-.32.74l-.39.71a17.31,17.31,0,0,1-1.81,2.66c.27-.47.54-.93.82-1.38a12.61,12.61,0,0,0,.7-1.43l.33-.72c.11-.24.19-.5.28-.74.17-.51.37-1,.51-1.51A38.74,38.74,0,0,0,129,356a58.53,58.53,0,0,0,.42-6.35c0-1.07,0-2.14,0-3.2S129.28,344.29,129.21,343.22Z" opacity="0.2"/><path d="M416,431.12c-3.59.85-15.8-2.14-15.8-2.14-8.6-1.23-12.65-6.16-12.65-6.16a20,20,0,0,1-11.25-3.69c-8.26-3.34-26.91-6.27-26.91-6.27v-.05a68.86,68.86,0,0,1,2.68-12.92,1,1,0,0,0,0-.16c2.42-7.08,5.45-10.68,5.75-11l0,0a78.59,78.59,0,0,1,16.33,1.8,23.92,23.92,0,0,1,4.24,1.31c7.25,3.08,21.38,5.56,21.38,5.56,6.34.84,8.12,3.38,8.61,4.92a2.2,2.2,0,0,1-.5,2.16c-2.36,2.5-6.84,1.47-9.55.53a16.28,16.28,0,0,1-3.26-1.63c-3.59-2.27-5.67-1.23-5.67-1.23-1.4,1.05-.92,2.29-.08,3.25a6.44,6.44,0,0,0,3.4,2c15.6,3.65,11.45,8.3,11.45,8.3,10.72-1.4,10.2,3,10.2,3,.87,4-8.32,3.76-8.32,3.76,9.09,4.18,10.33,6.28,10.64,7.53A1,1,0,0,1,416,431.12Z" fill="#f9b499"/><path d="M169.12,445.2l36,14.62s6.49,2.24,7.49,7H156.51S161,448,169.12,445.2Z" fill="#f9b499"/><rect x="236.8" y="430.54" width="6.11" height="39.39" fill="#d1d3d4"/><path d="M229.33,228.38c0,20-13.1,36.28-29.26,36.28a20.22,20.22,0,0,1-2.07-.09c-9.93-.85-18.5-7.85-23.24-17.95a42.92,42.92,0,0,1-4-18.24c0-20,13.1-36.28,29.27-36.28S229.33,208.35,229.33,228.38Z" fill="#f9b499"/><path d="M205.15,290.71c-.76,22.81-14.56,39.48-14.56,39.48a168.52,168.52,0,0,1-47.16-39.48l10.35-3.83a15.77,15.77,0,0,0,4.38-2.19,21,21,0,0,0,7.92-10.93l8.68-27.14c4.74,10.1,13.31,17.1,23.24,17.95l-5.44,17.78a1.84,1.84,0,0,0,.9,2.17Z" fill="#f9b499"/><path d="M198,264.57l-3.08,10.07s-16.44-5.15-17.38-23.1C177.54,251.54,183.18,262.39,198,264.57Z" fill="#f7a48b"/><path d="M163.79,260.16s-33.76-15.08-9.12-47.85c0,0-2.21-20.58,16.13-31.11,0,0,16.89-10.53,32,0,0,0,8.37-8.61,18.9,2.87,0,0,7.18,6,3.11,24.88a36.8,36.8,0,0,0-8.39-10.68s-12.87,17.21-34.14,18.07l-3.66,10.31-3.83,20-8.68,27.14a19.44,19.44,0,0,1-12.3,13.12l-10.35,3.83-5,1.05S132,270.24,163.79,260.16Z" fill="#2f2e41"/><ellipse cx="171.82" cy="231.89" rx="8.04" ry="9.69" fill="#f9b499"/><path d="M82.8,412.05a16.11,16.11,0,0,0,3,1.48c.52.21,1.06.39,1.59.58s1.07.33,1.62.47a46.58,46.58,0,0,0,6.62,1.27c2.24.32,4.49.42,6.75.54l3.39.07c1.13,0,2.26,0,3.4,0-1.13.13-2.26.22-3.39.34l-3.41.12a51.79,51.79,0,0,1-6.82-.39,36.6,36.6,0,0,1-6.69-1.44A19.15,19.15,0,0,1,82.8,412.05Z" opacity="0.2"/><rect x="150.33" y="466.8" width="269.68" height="11.36" fill="#bcbec0"/><path d="M261.17,440.69H384.31a6.57,6.57,0,0,1,5.24,2.61l1.06,1.41a6.72,6.72,0,0,1,1.13,5.83L387.3,466.8H251.92Z" fill="#d1d3d4"/><polygon points="260.21 466.92 259.58 466.69 267 447.01 387.58 447.01 387.58 447.69 267.47 447.69 260.21 466.92" fill="#bcbec0"/><rect x="36.05" y="491.11" width="131.37" height="47.97" fill="#a7a9ac"/><rect x="167.43" y="491.11" width="602.73" height="47.97" fill="#bcbec0"/><rect x="26.12" y="474.18" width="752.5" height="33.86" fill="#d1d3d4"/><rect x="201.27" y="406.09" width="74.47" height="28.29" rx="4.22" fill="#a7a9ac"/><rect x="212.64" y="409.16" width="59.93" height="21.38" rx="3.75" fill="#fff"/><polygon points="777.15 341.68 810.98 479.06 765.27 489.39 715.96 470.8 713.78 352.52 777.15 341.68" fill="#2f2e41"/><path d="M734.83,341.68s6.61,6.5,7.63,12.08a4.21,4.21,0,0,1-4,5c-1.81,0-4.37-.49-7.91-2.41Z" fill="#0071f2"/><path d="M734.83,341.68s6.61,6.5,7.63,12.08a4.21,4.21,0,0,1-4,5c-1.81,0-4.37-.49-7.91-2.41Z" opacity="0.2"/><path d="M710.69,333.35s7.77-22.3,21.58-31.34c0,0-3.52-3.52,0-5.78,0,0,6-4,7.79,0,0,0-.25,1,2.76.75,0,0,6.58.64,8.42,6.21a3.37,3.37,0,0,0,1.89,2.07c1.73.73,4.18,2.41,3,5.79a32.06,32.06,0,0,1-.67,10.51,8.7,8.7,0,0,1-8,6.27c-3.82.21-11.06,1.94-12.08,11.85l-4.83,16.66S712.46,345.62,710.69,333.35Z" fill="#f9b499"/><path d="M731.66,319.43s12.09-7.83,23.5-.83" fill="none" stroke="#f7a48b" stroke-miterlimit="10"/><path d="M469.66,429s1.63-4.92,6.79,1.94l17.95,24.74s4.65,6.66-.71,6.87Z" fill="#bcbec0"/><path d="M400.24,429s6.32,9.87,10.21,11.49a1.34,1.34,0,0,0,1.6-.44c.75-1,1.5-3.59-.79-9.55Z" fill="#f7a48b"/><path d="M369.83,395.23s7.33,3.82,9.61,9.75a2.46,2.46,0,0,0,2,1.54l14.39,2a15.43,15.43,0,0,1,6.38,2.33c1.68,1.11,3.1,2.59,2.42,4.22a1.86,1.86,0,0,1-1,.95c-1.75.73-7.57,2.05-25.16-.39" fill="none" stroke="#f7a48b" stroke-miterlimit="10"/><path d="M406.16,422.37s-13.1,1.31-18.58.46" fill="none" stroke="#f7a48b" stroke-miterlimit="10"/><path d="M495.34,470.25l-30.75,2.14a2,2,0,0,1-1.92-1l-27.52-45.06a2.07,2.07,0,0,1,1.71-3.14l26.93-.82a2.09,2.09,0,0,1,1.76.87L496.89,467A2.07,2.07,0,0,1,495.34,470.25Z" fill="#d1d3d4"/><path d="M496.4,474.17H430.1c-.15-6.24,10.77-12,10.77-12,4-5-6-8.44-6-8.44-6-2.21-4.61-6.39-4.61-6.39l1.85-16.08c.65-7.85,3.14-7.2,3.14-7.2a2.07,2.07,0,0,0-.08,2.26l27.52,45.06a2,2,0,0,0,1.92,1l30.75-2.14a2.07,2.07,0,0,0,1.55-3.26A5.51,5.51,0,0,1,496.4,474.17Z" fill="#bcbec0"/><polygon points="438.44 426.65 447.37 440.69 471.93 438.85 463.3 425.16 438.44 426.65" fill="#fff"/><path d="M451.28,431.2h0a1.38,1.38,0,0,1,1.71,0l2,1.6a.85.85,0,0,0,1.37-.54l.65-4.43a1.18,1.18,0,0,1,1.18-1h0a1.19,1.19,0,0,1,1.16,1.46l-1.9,8.27a.86.86,0,0,1-1.35.49l-4.83-3.65A1.38,1.38,0,0,1,451.28,431.2Z" fill="#0071f2"/><path d="M452.89,446.35a1,1,0,0,1-.08-2l5.51-.46a1,1,0,0,1,.16,2l-5.51.46Z" fill="#bcbec0"/><path d="M461.74,445.33a1,1,0,0,1-.08-2l5.51-.46a1,1,0,0,1,.16,2l-5.5.46Z" fill="#bcbec0"/><path d="M469.66,444.61a1,1,0,0,1-.08-2l5.5-.46a1,1,0,1,1,.17,2l-5.51.46Z" fill="#bcbec0"/><path d="M457.24,452.75a1,1,0,0,1-.09-2l5.51-.46a1,1,0,1,1,.17,2l-5.51.46Z" fill="#bcbec0"/><path d="M466.09,451.73a1,1,0,0,1-.08-2l5.5-.46a1,1,0,1,1,.17,2l-5.51.46Z" fill="#bcbec0"/><path d="M474,451a1,1,0,0,1-.09-2l5.51-.46a1,1,0,1,1,.17,2l-5.51.46Z" fill="#bcbec0"/><path d="M461.27,459.18a1,1,0,0,1-.08-2l5.51-.46a1,1,0,1,1,.17,2l-5.51.46Z" fill="#bcbec0"/><path d="M470.13,458.16a1,1,0,0,1-.09-2l5.51-.46a1,1,0,0,1,.17,2l-5.51.46Z" fill="#bcbec0"/><path d="M478,457.44a1,1,0,0,1-.08-2l5.51-.46a1,1,0,0,1,.17,2l-5.51.46Z" fill="#bcbec0"/><path d="M466.9,465.74a1,1,0,0,1-.08-2l5.51-.46a1,1,0,1,1,.17,2l-5.51.46Z" fill="#0071f2"/><path d="M475.76,464.72a1,1,0,0,1-1-.93,1,1,0,0,1,.92-1.08l5.51-.46a1,1,0,1,1,.17,2l-5.51.46Z" fill="#2f2e41"/><path d="M483.67,464a1,1,0,0,1-.08-2l5.51-.46a1,1,0,0,1,.17,2l-5.51.46Z" fill="#bcbec0"/><path d="M500.23,422.37s14.5,7.2,26.26,0c0,0-3.22,18.45-13.13,17.61C513.36,440,501.94,438.45,500.23,422.37Z" fill="#0071f2"/><path d="M500.23,422.37s14.5,7.2,26.26,0c0,0-3.22,18.45-13.13,17.61C513.36,440,501.94,438.45,500.23,422.37Z" opacity="0.2"/><path d="M406.16,298.71s6.47,20.84,10.67,23.81c0,0,22.24-34.06,30.66-51l13.63,15.9s-19.21,33.18-33.5,49.67a14.07,14.07,0,0,1-9.43,4.82,23.06,23.06,0,0,1-2.78.05h-.09A14.1,14.1,0,0,1,405,336.43q-2-2.55-4-5.44c-3.91-5.61-8.43-13.13-10.83-20.75Z" fill="#0071f2"/><path d="M416.83,360.48a42.21,42.21,0,1,1,7.31-83.78,1.68,1.68,0,1,1-.58,3.3,39.71,39.71,0,0,0-6.73-.58,38.85,38.85,0,1,0,38.53,43.87,1.67,1.67,0,1,1,3.32.43A42.27,42.27,0,0,1,416.83,360.48Z" fill="#e6e7e8"/><path d="M559.06,539.08l18.7-82.88,111.79-2.45s11.27,50,10.12,85.33Z" fill="#2f2e41"/><polygon points="639.07 263.66 670.38 266.19 677.48 270.03 676.32 275.87 664.52 283.74 649.32 287.68 637.12 274.5 639.07 263.66" fill="#0071f2"/><polygon points="639.07 263.66 670.38 266.19 677.48 270.03 676.32 275.87 664.52 283.74 649.32 287.68 637.12 274.5 639.07 263.66" opacity="0.2"/><polygon points="607.5 274.5 599.68 284.46 601.82 291.21 610.47 291.21 613.67 274.74 607.5 274.5" fill="#0071f2"/><polygon points="607.5 274.5 599.68 284.46 601.82 291.21 610.47 291.21 613.67 274.74 607.5 274.5" opacity="0.2"/><path d="M602.1,273.67s-12.09,10.4-8.79,24.83c0,0-3.71-.62-2.89,3.51,0,0-26.07,19.84-29.09,44.71,0,0-5,25.45-6.18,34.36a25,25,0,0,1-4.86,6.39,9.19,9.19,0,0,0-2.66,10.78l.33.66s2.3,4.88-4,3.45l-29.9-2s-4.31-1.19-5.17,2.28c0,0,18.4-2,18.68,14.11,0,0-1.61,13.91-7.88,19.89a8.32,8.32,0,0,1-11.11.21c-3.14-2.68-7.59-7.59-8.32-14.46h-3s-8,13.11,19.06,25a47.14,47.14,0,0,0,19.55,1.74s13.52-2.7,15,1.15c0,0,8.34,12.05,21.85,5.93a9.4,9.4,0,0,0,5.47,6.33s49.74,9.57,107.24-6.33c0,0,5.75-1.44,6.32-7.08l2.88-11.69s26.74,10.35,31.91-19c0,0,1.44-12.65,7.48-19.84,0,0,4.6-5.46,6-23a18.19,18.19,0,0,1,3.1-9.46,15.3,15.3,0,0,0,2.86-7c.59-4.82-.79-12.08-10.56-19.53l-.79,2.73s9.71,8.48,7.12,14.23c0,0-2.37,5.87-14.44-2.76,0,0-15.69-11-16.61-20.53,0,0-4,1.15-5.18,4,0,0-8-23.29-19.55-29.9,0,0,8.63-10.06.29-18.69,0,0-8.63-6.67-6-15.12,0,0,4.6-7.3-9.77-10.18a5.84,5.84,0,0,1-1.15,4s8.61,1.53,5,6.13a7.65,7.65,0,0,1-3.1,2.25c-2.85,1.15-10.2,4.16-20.33,8.58l-49.06,5.66s-.43-8.92,6-14.48a.1.1,0,0,0,0-.18A29.44,29.44,0,0,1,602.1,273.67Z" fill="#0071f2"/><path d="M471.6,395.29l-28.81-15.43a.81.81,0,0,1,.2-1.51l24.32-5.42a4.55,4.55,0,0,1,2.95.34l34.17,16.48-8.26,16.58c-2.81-.85-5.79-1.87-8.9-3.12A104.09,104.09,0,0,1,471.6,395.29Z" fill="#2f2e41"/><g opacity="0.2"><path d="M684.25,412.65a1,1,0,0,1-1-.88c-1.73-13.77,2.66-26.1,5.44-32.23a24.85,24.85,0,0,1,3.48-5.46,17,17,0,0,0,2.69-4.82,22.12,22.12,0,0,0,1.35-7.44c.25-17.21,8.28-24.86,8.62-25.18a1,1,0,0,1,1.37,1.48h0c-.08.07-7.74,7.44-8,23.73a24,24,0,0,1-1.48,8.11,18.8,18.8,0,0,1-3,5.4,22.82,22.82,0,0,0-3.21,5c-2.68,5.93-6.94,17.87-5.27,31.15a1,1,0,0,1-.87,1.12Z"/></g><g opacity="0.2"><path d="M694,438.47a18.1,18.1,0,0,1-10.54-3.85c-7.72-5.73-12.87-16.76-15.31-32.81a90.21,90.21,0,0,1-.8-18.25c.42-7.73.57-22.24-3.08-32.54a1,1,0,1,1,1.89-.67c3.78,10.63,3.63,25.44,3.2,33.32a88.38,88.38,0,0,0,.78,17.84c2.92,19.18,9.43,27.65,14.38,31.39,5.29,4,10,3.54,10,3.53a1,1,0,0,1,.22,2A5.06,5.06,0,0,1,694,438.47Z"/></g><g opacity="0.2"><path d="M634.61,312.47l-.3-.59a91.23,91.23,0,0,0,13.35-9.06,99.8,99.8,0,0,1,17.42-11.27,30.51,30.51,0,0,1,6.54-2.71l.12.66a29.92,29.92,0,0,0-6.35,2.65,98.7,98.7,0,0,0-17.31,11.19A90.67,90.67,0,0,1,634.61,312.47Z"/></g><g opacity="0.2"><rect x="672.98" y="286.53" width="0.67" height="23.44" transform="translate(111.46 774.3) rotate(-64.16)"/></g><g opacity="0.2"><path d="M595.4,316.69a1,1,0,0,1-.84-.45c-.13-.2-3.27-5-4-15.86a1,1,0,0,1,.93-1.07,1,1,0,0,1,1.08.93c.71,10.23,3.66,14.85,3.69,14.89a1,1,0,0,1-.29,1.4A1,1,0,0,1,595.4,316.69Z"/></g><g opacity="0.2"><path d="M572.68,457.21a1,1,0,0,1-.86-.5c-5.81-9.9-1-22.65,2.33-29.37a33.76,33.76,0,0,0,2-25.86,31.88,31.88,0,0,0-2.53-5.65,33.36,33.36,0,0,1-4-10.62c-3.57-19.71,8.07-41.44,8.82-42.81,4.4-9.94,2.61-21.88,2.6-22a1,1,0,1,1,2-.31c.08.51,1.91,12.66-2.75,23.16l0,.08c-.12.22-12.11,22.3-8.62,41.52a31.22,31.22,0,0,0,3.79,10,35,35,0,0,1,2.7,6,35.8,35.8,0,0,1-2.1,27.41c-3.18,6.35-7.72,18.37-2.4,27.46a1,1,0,0,1-.36,1.37A.94.94,0,0,1,572.68,457.21Zm6.62-114.37Z"/></g><g opacity="0.2"><path d="M569.85,406.66c-8.62-1.48-21.59-4.81-21.71-4.84l.16-.65c.13,0,13.07,3.36,21.66,4.83Z"/></g><g opacity="0.2"><path d="M654.57,449.26l-.66-.08,1.24-10.94a7.49,7.49,0,0,0-2.5-6.44c-8.94-7.92-14.29-18.3-16.69-23.78a5.52,5.52,0,0,0-6.35-3.18c-17,4.08-27.75,3.8-33.82,2.85a5.62,5.62,0,0,0-6,3.16l-9.41,19.9-.61-.29,9.41-19.9A6.39,6.39,0,0,1,595.9,407c4.92.78,15.82,1.44,33.55-2.83a6.19,6.19,0,0,1,7.13,3.56c2.37,5.43,7.67,15.71,16.52,23.55a8.17,8.17,0,0,1,2.72,7Z"/></g><g opacity="0.2"><path d="M573.16,343.09c-9.1-8.53-6.37-13.89-6.25-14.11l.59.31-.29-.15.29.15s-2.57,5.17,6.12,13.31Z"/></g><g opacity="0.2"><path d="M598.35,385.92a.86.86,0,0,1-.22,0,1,1,0,0,1-.77-1.2c5.34-24.55,3.64-40.27,2.66-45.88a34.92,34.92,0,0,1-.5-8.12c.44-7.37,2.33-8.82,2.9-9.09l.87,1.81a.15.15,0,0,0,.08,0s-1.46,1.15-1.84,7.44a32.56,32.56,0,0,0,.48,7.65c1,5.74,2.73,21.76-2.68,46.66A1,1,0,0,1,598.35,385.92Z"/></g><g opacity="0.2"><path d="M615.58,369.15a.92.92,0,0,1-.36-.07,1,1,0,0,1-.57-1.31c4.88-12.41.15-24.43.1-24.55-6.47-13.79,2.31-21.4,2.4-21.48a1,1,0,0,1,1.42.13,1,1,0,0,1-.12,1.41c-.33.28-7.67,6.75-1.86,19.14.23.56,5.12,12.91-.07,26.09A1,1,0,0,1,615.58,369.15Z"/></g><g opacity="0.2"><polygon points="810.82 479.35 780.73 462.75 762.05 364.5 762.71 364.38 781.33 462.31 811.14 478.76 810.82 479.35"/></g><g opacity="0.2"><rect x="762.99" y="473.56" width="25.19" height="0.67" transform="translate(13.4 969.06) rotate(-64.44)"/></g><path d="M782.3,362.6s15.77-13.17,30.49-14.2l42.6,118.26-31.24,16Z" fill="#0071f2"/><polygon points="824.15 482.67 810.58 477.42 782.3 362.6 824.15 482.67" fill="#0071f2"/><polygon points="824.15 482.67 810.58 477.42 782.3 362.6 824.15 482.67" opacity="0.2"/><g opacity="0.2"><path d="M827.69,479.34l-.37-.56.19.28-.21-.26c.65-.66,5.54-12.17,8.68-19.75l.12-.31,19.42,7.61-.25.63-18.8-7.37C834.45,464.5,828.47,478.82,827.69,479.34Z"/></g><g opacity="0.2"><rect x="817.23" y="355.15" width="0.67" height="107.39" transform="translate(-91.25 310.7) rotate(-20.4)"/></g><path d="M779.1,349.59a80.34,80.34,0,0,0,18.19,0c1.3-.16,12.92-3.52,15.5-1.19,0,0-12.7.57-30.49,14.2Z" fill="#0071f2"/><path d="M779.1,349.59a80.34,80.34,0,0,0,18.19,0c1.3-.16,12.92-3.52,15.5-1.19,0,0-12.7.57-30.49,14.2Z" opacity="0.2"/><path d="M745.75,347c-1.35-25.82-7.29-36.77-7.35-36.88l.59-.33c.06.11,6.08,11.21,7.43,37.18Z" fill="#2f2e41"/><path d="M755.89,345.33c-4.86-23.69-11-33.62-11.07-33.72h0l.38-.5c.53.15,13.29,4,28.4,31.07l-.59.33c-12.75-22.83-24-29.06-27.15-30.42,1.55,2.84,6.58,13.1,10.68,33.11Z" fill="#2f2e41"/><rect x="750.45" y="327.44" width="0.67" height="18.62" transform="matrix(0.98, -0.2, 0.2, 0.98, -52.63, 158.96)" fill="#2f2e41"/><path d="M611.86,274.59a10.49,10.49,0,0,1-3.51,9.69l-6.59,5.86a2.84,2.84,0,0,0-.94,1.86c-.49,5.6-2,30,8.57,28.15,0,0,6.18.62,17.11-13.81,0,0,15.87-17.32,24.32-21.86,0,0-11.75-8.65-11.75-20.82,0,0-2.83-16.14-4.61-22.09h-1.67Z" fill="#f9b499"/><path d="M611,280.91a15.38,15.38,0,0,0,.9-6.32s12.87-3.62,19-12.54C630.91,262.05,626.55,278.78,611,280.91Z" fill="#f7a48b"/><path d="M645.34,220.73a16.22,16.22,0,0,1,4.29-4.7,14.36,14.36,0,0,1,5.81-2.57,14.36,14.36,0,0,1,6.26.29,18.78,18.78,0,0,1,5.57,2.59,23.83,23.83,0,0,0-5.74-1.78,13.85,13.85,0,0,0-10.95,2.73,17.27,17.27,0,0,0-2.14,2,17.75,17.75,0,0,0-1.79,2.24Z" fill="#2f2e41"/><ellipse cx="606.14" cy="241.57" rx="25.84" ry="35.37" transform="translate(-46.32 233.65) rotate(-21.03)" fill="#f9b499"/><path d="M579.2,229.4a26.1,26.1,0,0,1,2.16-8.29,54.41,54.41,0,0,0,35.85,1.29s6.3,10.58,10.47,12.69l7.54,9.36s2.1,8.75,3.85,19.21c0,0,.18,11,16.8,12.17a14.19,14.19,0,0,0,12.24-5.14c2.71-3.43,4.24-8.54-.45-15.25,0,0,14.76-10.73,5.75-26.26,0,0-7.67-14.22-27.41-8.07,0,0,.94-22.86-22.41-31.89a13.9,13.9,0,0,0-2-.59c-4.82-1.08-22.94-4-35.4,10.08a23.78,23.78,0,0,1-4.16,3.66C576.59,206.21,565,216.75,579.2,229.4Z" fill="#2f2e41"/><ellipse cx="634.46" cy="235.09" rx="7.96" ry="9.36" fill="#f9b499"/><g opacity="0.2"><rect x="615.45" y="496.19" width="2.01" height="43.11" transform="translate(-67.86 93.72) rotate(-8.24)"/></g><g opacity="0.2"><path d="M615.08,515.94c-10.26-6.51-13.07-15.64-13.19-16l1.93-.58a30.06,30.06,0,0,0,12.34,14.9Z"/></g><g opacity="0.2"><path d="M681.07,505.05c-17.48-12.31-21.68-26-21.85-26.6l1.93-.57c0,.13,4.22,13.64,21.08,25.53Z"/></g><path d="M471.6,388.12s-4.7-.47,2.41,11.76c0,0,2.9,7.34,8,9.59a6.51,6.51,0,0,1,2.59,2.21,10.22,10.22,0,0,0,4.26,3.33,8.27,8.27,0,0,1,3.19,2.36,27,27,0,0,0,5.21,5h3s13.32,7,26.26,0c0,0,7.06-20.06-17.63-19.75,0,0,3.76-7.91-1.65-9.32,0,0-.18-6.12-3.69-5.13a3.24,3.24,0,0,0-2.12,2.08c-1,3-4,10.76-6.65,10.57,0,0-1.42.24-1.13-6.8,0,0,1-12.36-1.73-12.94,0,0-3.49-.93-3.66,5.8a31.62,31.62,0,0,1-1,7.12c-.78,2.95-1.94,6.32-3.22,6.86a.74.74,0,0,1-.6,0c-.7-.32-2.37-1.66-5.64-7.09C477.81,393.73,475.6,387.26,471.6,388.12Z" fill="#f9b499"/><path d="M494.75,400.82s-1,3.12-.7,4.27" fill="none" stroke="#f7a48b" stroke-miterlimit="10"/><path d="M507.21,393.3s-2.32,11.79-8.46,16.39" fill="none" stroke="#f7a48b" stroke-miterlimit="10"/><path d="M508.86,402.62S508.79,418,496.17,417" fill="none" stroke="#f7a48b" stroke-miterlimit="10"/><path d="M740.06,296.23,732.27,302s-7.07,6.42-1.57,7.11c0,0,.14,6.74,6.46,1.24,0,0,2.22-1.38,2.9,1,0,0,1.28,2.18,5.05.11a6.2,6.2,0,0,1,6.57.46,17.13,17.13,0,0,1,4.54,4.94" fill="none" stroke="#f7a48b" stroke-miterlimit="10"/><g opacity="0.2"><rect x="761.12" y="347.28" width="1.34" height="142.19" transform="translate(-19.6 37.86) rotate(-2.81)"/></g></svg>